<?xml version="1.0" encoding="UTF-8" standalone="no"?>
<svg
   xmlns:dc="http://purl.org/dc/elements/1.1/"
   xmlns:cc="http://creativecommons.org/ns#"
   xmlns:rdf="http://www.w3.org/1999/02/22-rdf-syntax-ns#"
   xmlns:svg="http://www.w3.org/2000/svg"
   xmlns="http://www.w3.org/2000/svg"
   viewBox="0 0 770.66669 493.33334"
   height="493.33334"
   width="770.66669"
   xml:space="preserve"
   id="svg2"
   version="1.1"><metadata
     id="metadata8"><rdf:RDF><cc:Work
         rdf:about=""><dc:format>image/svg+xml</dc:format><dc:type
           rdf:resource="http://purl.org/dc/dcmitype/StillImage" /></cc:Work></rdf:RDF></metadata><defs
     id="defs6"><clipPath
       id="clipPath20"
       clipPathUnits="userSpaceOnUse"><path
         id="path18"
         d="M 0,0.1600083 H 577.92 V 370.00001 H 0 Z" /></clipPath></defs><g
     transform="matrix(1.3333333,0,0,-1.3333333,0,493.33333)"
     id="g10"><g
       id="g12" /><g
       id="g14"><g
         clip-path="url(#clipPath20)"
         id="g16"><path
           id="path22"
           style="fill:#ffffff;fill-opacity:1;fill-rule:nonzero;stroke:none"
           d="M 0,370 H 577.92 V 0.1600083 H 0 Z" /></g></g><g
       id="g24"><path
         id="path26"
         style="fill:#ffffff;fill-opacity:1;fill-rule:nonzero;stroke:none"
         d="M 0,370 H 578.25 V 0.1249703 H 0 Z" /><path
         id="path28"
         style="fill:#ffffff;fill-opacity:1;fill-rule:nonzero;stroke:none"
         d="M 226.4491,367.3567 H 544.6936 V 2.853317 H 226.4491 Z" /><g
         transform="matrix(7.874016e-5,0,0,-7.874016e-5,226.4491,367.3567)"
         id="g30"><path
           id="path32"
           style="fill:none;stroke:#000000;stroke-width:12700;stroke-linecap:butt;stroke-linejoin:miter;stroke-miterlimit:8;stroke-dasharray:none;stroke-opacity:1"
           d="M 0,0 H 4041705 V 4629193 H 0 Z" /></g><g
         transform="matrix(0.24,0,0,0.24,362.1639,-22.39999)"
         id="g34"><text
           id="text38"
           style="font-variant:normal;font-weight:normal;font-size:75px;font-family:Calibri;-inkscape-font-specification:Calibri;writing-mode:lr-tb;fill:#000000;fill-opacity:1;fill-rule:nonzero;stroke:none"
           transform="matrix(1,0,0,-1,0,1541)"><tspan
             id="tspan36"
             y="0"
             x="0 28.7925 82.410004 99.577499 123.645 155.4375">switch</tspan></text>
</g><path
         id="path40"
         style="fill:#ffffff;fill-opacity:1;fill-rule:nonzero;stroke:none"
         d="m 298.5899,179.1647 h 178.56 V 86.04481 h -178.56 z" /><g
         transform="matrix(7.874016e-5,0,0,-7.874016e-5,298.5899,179.1647)"
         id="g42"><path
           id="path44"
           style="fill:none;stroke:#000000;stroke-width:12700;stroke-linecap:butt;stroke-linejoin:miter;stroke-miterlimit:8;stroke-dasharray:none;stroke-opacity:1"
           d="M 0,0 H 2267712 V 1182623 H 0 Z" /></g><g
         transform="matrix(0.24,0,0,0.24,329.2324,-243.44)"
         id="g46"><text
           id="text50"
           style="font-variant:normal;font-weight:normal;font-size:75px;font-family:Calibri;-inkscape-font-specification:Calibri;writing-mode:lr-tb;fill:#000000;fill-opacity:1;fill-rule:nonzero;stroke:none"
           transform="matrix(1,0,0,-1,0,1541)"><tspan
             id="tspan48"
             y="0"
             x="0 28.7925 82.410004 99.577499 123.645 155.4375 195.03 232.52251 264.315 289.13251 328.72501 357.89249 387.06 426.6525 462.57001">switch_crossbar</tspan></text>
</g><path
         id="path52"
         style="fill:#ffffff;fill-opacity:1;fill-rule:nonzero;stroke:none"
         d="m 194.0486,273.1636 h 64.8 V 100.2095 h -64.8 z" /><g
         transform="matrix(7.874016e-5,0,0,-7.874016e-5,194.0486,273.1636)"
         id="g54"><path
           id="path56"
           style="fill:none;stroke:#000000;stroke-width:12700;stroke-linecap:butt;stroke-linejoin:miter;stroke-miterlimit:8;stroke-dasharray:none;stroke-opacity:1"
           d="M 0,0 H 822960 V 2196518 H 0 Z" /></g><g
         transform="matrix(0.24,0,0,0.24,207.1361,-157.04)"
         id="g58"><text
           id="text62"
           style="font-variant:normal;font-weight:normal;font-size:75px;font-family:Calibri;-inkscape-font-specification:Calibri;writing-mode:lr-tb;fill:#000000;fill-opacity:1;fill-rule:nonzero;stroke:none"
           transform="matrix(1,0,0,-1,0,1541)"><tspan
             id="tspan60"
             y="0"
             x="0 17.190001 56.805 96.419998 136.035 161.02499">input </tspan></text>
</g><g
         transform="matrix(0.24,0,0,0.24,207.3211,-177.92)"
         id="g64"><text
           id="text68"
           style="font-variant:normal;font-weight:normal;font-size:75px;font-family:Calibri;-inkscape-font-specification:Calibri;writing-mode:lr-tb;fill:#000000;fill-opacity:1;fill-rule:nonzero;stroke:none"
           transform="matrix(1,0,0,-1,0,1541)"><tspan
             id="tspan66"
             y="0"
             x="0 39.584999 79.169998 105.18 130.14">ports</tspan></text>
</g><g
         transform="matrix(0.24,0,0,0.24,221.9461,-200)"
         id="g70"><text
           id="text74"
           style="font-variant:normal;font-weight:normal;font-size:75px;font-family:Calibri;-inkscape-font-specification:Calibri;writing-mode:lr-tb;fill:#000000;fill-opacity:1;fill-rule:nonzero;stroke:none"
           transform="matrix(1,0,0,-1,0,1541)"><tspan
             id="tspan72"
             y="0"
             x="0">+</tspan></text>
</g><g
         transform="matrix(0.24,0,0,0.24,208.5461,-221.84)"
         id="g76"><text
           id="text80"
           style="font-variant:normal;font-weight:normal;font-size:75px;font-family:Calibri;-inkscape-font-specification:Calibri;writing-mode:lr-tb;fill:#000000;fill-opacity:1;fill-rule:nonzero;stroke:none"
           transform="matrix(1,0,0,-1,0,1541)"><tspan
             id="tspan78"
             y="0"
             x="0 39.584999 77.07 105.405 130.36501">dest.</tspan></text>
</g><path
         id="path82"
         style="fill:#ffffff;fill-opacity:1;fill-rule:nonzero;stroke:none"
         d="m 512.2931,273.1636 h 64.8 V 100.2095 h -64.8 z" /><g
         transform="matrix(7.874016e-5,0,0,-7.874016e-5,512.2931,273.1636)"
         id="g84"><path
           id="path86"
           style="fill:none;stroke:#000000;stroke-width:12700;stroke-linecap:butt;stroke-linejoin:miter;stroke-miterlimit:8;stroke-dasharray:none;stroke-opacity:1"
           d="M 0,0 H 822960 V 2196518 H 0 Z" /></g><g
         transform="matrix(0.24,0,0,0.24,519.693,-178.64)"
         id="g88"><text
           id="text92"
           style="font-variant:normal;font-weight:normal;font-size:75px;font-family:Calibri;-inkscape-font-specification:Calibri;writing-mode:lr-tb;fill:#000000;fill-opacity:1;fill-rule:nonzero;stroke:none"
           transform="matrix(1,0,0,-1,0,1541)"><tspan
             id="tspan90"
             y="0"
             x="0 39.584999 79.169998 104.13 143.715 183.3 208.25999">output </tspan></text>
</g><g
         transform="matrix(0.24,0,0,0.24,525.568,-199.52)"
         id="g94"><text
           id="text98"
           style="font-variant:normal;font-weight:normal;font-size:75px;font-family:Calibri;-inkscape-font-specification:Calibri;writing-mode:lr-tb;fill:#000000;fill-opacity:1;fill-rule:nonzero;stroke:none"
           transform="matrix(1,0,0,-1,0,1541)"><tspan
             id="tspan96"
             y="0"
             x="0 39.584999 79.169998 105.18 130.14">ports</tspan></text>
</g><path
         id="path100"
         style="fill:#ffffff;fill-opacity:1;fill-rule:nonzero;stroke:none"
         d="m 298.5899,332.9545 h 178.56 v -59.7914 h -178.56 z" /><g
         transform="matrix(7.874016e-5,0,0,-7.874016e-5,298.5899,332.9545)"
         id="g102"><path
           id="path104"
           style="fill:none;stroke:#000000;stroke-width:12700;stroke-linecap:butt;stroke-linejoin:miter;stroke-miterlimit:8;stroke-dasharray:none;stroke-opacity:1"
           d="M 0,0 H 2267712 V 759351 H 0 Z" /></g><g
         transform="matrix(0.24,0,0,0.24,346.3599,-56.23999)"
         id="g106"><text
           id="text110"
           style="font-variant:normal;font-weight:normal;font-size:75px;font-family:Calibri;-inkscape-font-specification:Calibri;writing-mode:lr-tb;fill:#000000;fill-opacity:1;fill-rule:nonzero;stroke:none"
           transform="matrix(1,0,0,-1,0,1541)"><tspan
             id="tspan108"
             y="0"
             x="0 36.9375 72.900002 97.387497 133.35001 193.2375 230.325 254.5125 292.04999 316.83749">Parameters</tspan></text>
</g><g
         transform="matrix(0.24,0,0,0.24,334.6949,-74.23999)"
         id="g112"><text
           id="text116"
           style="font-variant:normal;font-weight:normal;font-size:58.33332825px;font-family:Calibri;-inkscape-font-specification:Calibri;writing-mode:lr-tb;fill:#000000;fill-opacity:1;fill-rule:nonzero;stroke:none"
           transform="matrix(1,0,0,-1,0,1541)"><tspan
             id="tspan114"
             y="0"
             x="0 33.856667 64.03833 78.644997 91.676659 118.24166 138.03999 157.605 186.79498 214.93498 261.27499 274.30664 293.87164 323.06165 336.61832 364.17499 383.33163 412.52164">AXI Stream related</tspan></text>
</g><g
         transform="matrix(0.24,0,0,0.24,372.3099,-91.27999)"
         id="g118"><text
           id="text122"
           style="font-variant:normal;font-weight:normal;font-size:58.33332825px;font-family:Calibri;-inkscape-font-specification:Calibri;writing-mode:lr-tb;fill:#000000;fill-opacity:1;fill-rule:nonzero;stroke:none"
           transform="matrix(1,0,0,-1,0,1541)"><tspan
             id="tspan120"
             y="0"
             x="0 31.768332 59.919998 90.638329 104.20666">Radix</tspan></text>
</g><path
         id="path124"
         style="fill:#ffffff;fill-opacity:1;fill-rule:nonzero;stroke:none"
         d="m 298.5899,255.9148 h 178.56 v -47.0399 h -178.56 z" /><g
         transform="matrix(7.874016e-5,0,0,-7.874016e-5,298.5899,255.9148)"
         id="g126"><path
           id="path128"
           style="fill:none;stroke:#000000;stroke-width:12700;stroke-linecap:butt;stroke-linejoin:miter;stroke-miterlimit:8;stroke-dasharray:none;stroke-opacity:1"
           d="M 0,0 H 2267712 V 597407 H 0 Z" /></g><g
         transform="matrix(0.24,0,0,0.24,349.5574,-143.6)"
         id="g130"><text
           id="text134"
           style="font-variant:normal;font-weight:normal;font-size:75px;font-family:Calibri;-inkscape-font-specification:Calibri;writing-mode:lr-tb;fill:#000000;fill-opacity:1;fill-rule:nonzero;stroke:none"
           transform="matrix(1,0,0,-1,0,1541)"><tspan
             id="tspan132"
             y="0"
             x="0 17.190001 56.805 96.419998 136.035 161.02499 178.215 195.405 235.02 270.435 287.625">input logic</tspan></text>
</g><path
         id="path136"
         style="fill:#000000;fill-opacity:1;fill-rule:nonzero;stroke:none"
         d="m 258.8843,186.1878 1.8939,0.1335 1.9088,0.3952 1.8726,0.6355 1.822,0.8572 1.7576,1.0607 1.6793,1.2468 1.5875,1.4157 1.4818,1.5677 1.3621,1.7032 1.2284,1.8221 1.0802,1.9248 0.9175,2.011 0.7401,2.0811 0.5477,2.1348 0.34,2.1719 0.1153,2.1653 0.114,2.1399 -0.005,-0.0508 0.3323,2.1231 -0.01,-0.0469 0.536,2.0896 -0.0132,-0.0433 0.7253,2.0394 -0.0162,-0.04 0.8999,1.9724 -0.0189,-0.0372 1.06,1.8887 -0.0214,-0.0347 1.2055,1.7883 -0.0241,-0.0329 1.3365,1.6712 -0.0271,-0.0312 1.4529,1.5372 -0.0306,-0.0297 1.5549,1.3865 -0.0348,-0.0282 1.6422,1.2191 -0.0397,-0.0266 1.7149,1.035 -0.0853,-0.041 2.4129,0.8904 -0.3462,0.9382 -2.4575,-0.9069 -1.776,-1.0719 -1.6794,-1.2468 -1.5875,-1.4157 -1.4818,-1.5677 -1.3621,-1.7032 -1.2284,-1.8221 -1.0802,-1.9248 -0.9175,-2.011 -0.7401,-2.0811 -0.5476,-2.1348 -0.34,-2.1719 -0.1154,-2.1653 -0.114,-2.1399 0.005,0.0508 -0.3323,-2.1231 0.01,0.0469 -0.5361,-2.0896 0.0133,0.0433 -0.7253,-2.0394 0.0162,0.04 -0.8999,-1.9724 0.0189,0.0372 -1.06,-1.8887 0.0214,0.0347 -1.2055,-1.7883 0.0241,0.0329 -1.3366,-1.6712 0.0272,0.0312 -1.453,-1.5372 0.0306,0.0297 -1.5548,-1.3865 0.0347,0.0282 -1.6421,-1.2191 0.0396,0.0266 -1.7149,-1.035 0.0455,0.0243 -1.7731,-0.8341 0.0522,0.021 -1.8168,-0.6165 0.0593,0.0161 -1.8459,-0.3822 0.0662,0.009 -1.8604,-0.1311 0.0703,-0.9975 z m 34.4903,41.9892 5.2159,4.2184 -6.5043,1.6416 z" /><path
         id="path138"
         style="fill:#000000;fill-opacity:1;fill-rule:nonzero;stroke:none"
         d="m 477.2147,37.76823 0.883,0.11537 0.9243,0.35788 0.8935,0.56978 0.8657,0.76499 0.8432,0.94964 0.8243,1.12697 0.8075,1.29822 0.7916,1.46361 0.7754,1.6231 0.7586,1.77651 0.741,1.92371 0.7221,2.06458 0.7018,2.19899 0.6803,2.3269 0.6573,2.44823 0.6326,2.56295 0.6066,2.67101 0.579,2.7724 0.5499,2.86709 0.5193,2.95687 0.9393,6.14534 0.7974,6.41835 0.6427,6.6355 0.475,6.79862 0.2944,6.90766 0.1009,6.9552 0.1008,6.9483 -4e-4,-0.0141 0.2939,6.8939 -8e-4,-0.0136 0.4741,6.7852 -10e-4,-0.0134 0.6413,6.6222 -0.001,-0.0135 0.7958,6.4047 -0.002,-0.0139 0.9373,6.1329 -0.002,-0.011 0.5178,2.9476 -10e-4,-0.008 0.5483,2.8593 -0.002,-0.008 0.5773,2.7641 -0.002,-0.008 0.6046,2.6622 -0.002,-0.009 0.6303,2.5535 -0.002,-0.01 0.6545,2.438 -0.003,-0.0107 0.677,2.3157 -0.004,-0.0117 0.6979,2.1866 -0.004,-0.013 0.7172,2.0507 -0.005,-0.0147 0.7349,1.9081 -0.007,-0.0167 0.751,1.7586 -0.009,-0.0192 0.7655,1.6023 -0.0114,-0.0223 0.7784,1.4393 -0.0153,-0.0263 0.7897,1.2694 -0.1145,-0.1281 0.8699,0.6879 -0.6203,0.7844 -0.9382,-0.742 -0.8437,-1.3563 -0.7915,-1.4636 -0.7755,-1.6231 -0.7586,-1.7765 -0.741,-1.9237 -0.722,-2.0646 -0.7019,-2.199 -0.6803,-2.3269 -0.6572,-2.4482 -0.6327,-2.563 -0.6066,-2.671 -0.579,-2.7724 -0.5499,-2.8671 -0.5193,-2.9568 -0.9393,-6.1454 -0.7975,-6.4183 -0.6426,-6.6355 -0.475,-6.7986 -0.2945,-6.9077 -0.1009,-6.9552 -0.1008,-6.9483 4e-4,0.0141 -0.2938,-6.89389 7e-4,0.01355 -0.474,-6.78516 0.001,0.01335 -0.6413,-6.62209 10e-4,0.01345 -0.7957,-6.40468 0.002,0.01389 -0.9374,-6.13292 0.002,0.01096 -0.5177,-2.94756 0.001,0.0077 -0.5483,-2.85923 0.002,0.008 -0.5772,-2.76411 0.002,0.0085 -0.6046,-2.6622 0.002,0.0091 -0.6304,-2.5535 0.002,0.0098 -0.6544,-2.43799 0.003,0.01067 -0.677,-2.3157 0.004,0.01173 -0.6979,-2.1866 0.004,0.01303 -0.7173,-2.05072 0.005,0.01465 -0.7349,-1.90804 0.007,0.01665 -0.751,-1.75857 0.009,0.01917 -0.7655,-1.60231 0.0114,0.02232 -0.7784,-1.43924 0.0153,0.02624 -0.7896,-1.26938 0.021,0.03108 -0.7993,-1.09273 0.0297,0.03678 -0.8074,-0.9093 0.0429,0.04272 -0.8138,-0.71905 0.0622,0.04689 -0.8185,-0.52203 0.0883,0.0447 -0.8218,-0.3182 0.1157,0.02952 -0.8234,-0.10757 0.1296,-0.99158 z m 32.0499,142.93207 3.0285,5.9857 -6.6057,-1.1687 z" /><path
         id="path140"
         style="fill:#000000;fill-opacity:1;fill-rule:nonzero;stroke:none"
         d="m 388.3699,208.8749 1e-4,-24.7102 h -1 l -1e-4,24.7102 z m 2.5001,-23.7102 -3,-6 -3,6 z" /><path
         id="path142"
         style="fill:#000000;fill-opacity:1;fill-rule:nonzero;stroke:none"
         d="m 388.3699,86.04535 1e-4,-19.26079 h -1 l -1e-4,19.26079 z m 2.5001,-18.26078 -3,-6.00001 -3,5.99999 z" /><path
         id="path144"
         style="fill:#ffffff;fill-opacity:1;fill-rule:nonzero;stroke:none"
         d="M 1.871181,273.1636 H 66.67118 V 100.2095 H 1.871181 Z" /><g
         transform="matrix(7.874016e-5,0,0,-7.874016e-5,1.871181,273.1636)"
         id="g146"><path
           id="path148"
           style="fill:none;stroke:#000000;stroke-width:12700;stroke-linecap:butt;stroke-linejoin:miter;stroke-miterlimit:8;stroke-dasharray:none;stroke-opacity:1"
           d="M 0,0 H 822960 V 2196518 H 0 Z" /></g><g
         transform="matrix(0.24,0,0,0.24,14.95866,-178.64)"
         id="g150"><text
           id="text154"
           style="font-variant:normal;font-weight:normal;font-size:75px;font-family:Calibri;-inkscape-font-specification:Calibri;writing-mode:lr-tb;fill:#000000;fill-opacity:1;fill-rule:nonzero;stroke:none"
           transform="matrix(1,0,0,-1,0,1541)"><tspan
             id="tspan152"
             y="0"
             x="0 17.190001 56.805 96.419998 136.035 161.02499">input </tspan></text>
</g><g
         transform="matrix(0.24,0,0,0.24,15.14366,-199.52)"
         id="g156"><text
           id="text160"
           style="font-variant:normal;font-weight:normal;font-size:75px;font-family:Calibri;-inkscape-font-specification:Calibri;writing-mode:lr-tb;fill:#000000;fill-opacity:1;fill-rule:nonzero;stroke:none"
           transform="matrix(1,0,0,-1,0,1541)"><tspan
             id="tspan158"
             y="0"
             x="0 39.584999 79.169998 105.18 130.14">ports</tspan></text>
</g><path
         id="path162"
         style="fill:#ffffff;fill-opacity:1;fill-rule:nonzero;stroke:none"
         d="M 98.92637,273.1636 H 163.7264 V 100.2095 H 98.92637 Z" /><g
         transform="matrix(7.874016e-5,0,0,-7.874016e-5,98.92637,273.1636)"
         id="g164"><path
           id="path166"
           style="fill:none;stroke:#000000;stroke-width:12700;stroke-linecap:butt;stroke-linejoin:miter;stroke-miterlimit:8;stroke-dasharray:none;stroke-opacity:1"
           d="M 0,0 H 822960 V 2196518 H 0 Z" /></g><g
         transform="matrix(0.24,0,0,0.24,109.7364,-167.84)"
         id="g168"><text
           id="text172"
           style="font-variant:normal;font-weight:normal;font-size:75px;font-family:Calibri;-inkscape-font-specification:Calibri;writing-mode:lr-tb;fill:#000000;fill-opacity:1;fill-rule:nonzero;stroke:none"
           transform="matrix(1,0,0,-1,0,1541)"><tspan
             id="tspan170"
             y="0"
             x="0 39.0825 78.690002 118.2975 142.455 179.96249">Route </tspan></text>
</g><g
         transform="matrix(0.24,0,0,0.24,108.6514,-188.72)"
         id="g174"><text
           id="text178"
           style="font-variant:normal;font-weight:normal;font-size:75px;font-family:Calibri;-inkscape-font-specification:Calibri;writing-mode:lr-tb;fill:#000000;fill-opacity:1;fill-rule:nonzero;stroke:none"
           transform="matrix(1,0,0,-1,0,1541)"><tspan
             id="tspan176"
             y="0"
             x="0 31.147499 70.769997 130.6425 170.265">comp.</tspan></text>
</g><g
         transform="matrix(0.24,0,0,0.24,114.3914,-210.8)"
         id="g180"><text
           id="text184"
           style="font-variant:normal;font-weight:normal;font-size:75px;font-family:Calibri;-inkscape-font-specification:Calibri;writing-mode:lr-tb;fill:#000000;fill-opacity:1;fill-rule:nonzero;stroke:none"
           transform="matrix(1,0,0,-1,0,1541)"><tspan
             id="tspan182"
             y="0"
             x="0 17.190001 56.805 92.220001 109.41">logic</tspan></text>
</g><path
         id="path186"
         style="fill:#000000;fill-opacity:1;fill-rule:nonzero;stroke:none"
         d="m 66.67173,187.1865 h 27.2552 v -1 h -27.2552 z m 26.25521,2.5 5.99999,-3 -6.00001,-3 z" /><path
         id="path188"
         style="fill:#000000;fill-opacity:1;fill-rule:nonzero;stroke:none"
         d="m 163.7264,187.1865 h 25.3222 v -1 h -25.3222 z m 24.3222,2.5 6,-3 -6,-3 z" /><path
         id="path190"
         style="fill:#ffffff;fill-opacity:1;fill-rule:nonzero;stroke:none"
         d="m 298.5899,61.78402 h 178.56 V 14.7441 h -178.56 z" /><g
         transform="matrix(7.874016e-5,0,0,-7.874016e-5,298.5899,61.78402)"
         id="g192"><path
           id="path194"
           style="fill:none;stroke:#000000;stroke-width:12700;stroke-linecap:butt;stroke-linejoin:miter;stroke-miterlimit:8;stroke-dasharray:none;stroke-opacity:1"
           d="M 0,0 H 2267712 V 597407 H 0 Z" /></g><g
         transform="matrix(0.24,0,0,0.24,343.8699,-337.76)"
         id="g196"><text
           id="text200"
           style="font-variant:normal;font-weight:normal;font-size:75px;font-family:Calibri;-inkscape-font-specification:Calibri;writing-mode:lr-tb;fill:#000000;fill-opacity:1;fill-rule:nonzero;stroke:none"
           transform="matrix(1,0,0,-1,0,1541)"><tspan
             id="tspan198"
             y="0"
             x="0 39.584999 79.169998 104.13 143.715 183.3 208.25999 225.42 242.58 282.16501 317.54999 334.70999">output logic</tspan></text>
</g></g></g></svg>